<svg width="21" height="20" viewBox="0 0 21 20"  xmlns="http://www.w3.org/2000/svg">
<path d="M1.75 10L3.75 8M3.75 8L10.75 1L17.75 8M3.75 8V18C3.75 18.2652 3.85536 18.5196 4.04289 18.7071C4.23043 18.8946 4.48478 19 4.75 19H7.75M17.75 8L19.75 10M17.75 8V18C17.75 18.2652 17.6446 18.5196 17.4571 18.7071C17.2696 18.8946 17.0152 19 16.75 19H13.75M7.75 19C8.01522 19 8.26957 18.8946 8.45711 18.7071C8.64464 18.5196 8.75 18.2652 8.75 18V14C8.75 13.7348 8.85536 13.4804 9.04289 13.2929C9.23043 13.1054 9.48478 13 9.75 13H11.75C12.0152 13 12.2696 13.1054 12.4571 13.2929C12.6446 13.4804 12.75 13.7348 12.75 14V18C12.75 18.2652 12.8554 18.5196 13.0429 18.7071C13.2304 18.8946 13.4848 19 13.75 19M7.75 19H13.75" stroke="#D4D7F1" stroke-width="2" stroke-linecap="round" stroke-linejoin="round"/>
</svg>
