<svg width="22" height="12" viewBox="0 0 22 12" fill="none" xmlns="http://www.w3.org/2000/svg">
<path d="M14 12V9H11.2C10.6667 9.9 9.94167 10.625 9.025 11.175C8.10833 11.725 7.1 12 6 12C4.33333 12 2.91667 11.4167 1.75 10.25C0.583333 9.08333 0 7.66667 0 6C0 4.33333 0.583333 2.91667 1.75 1.75C2.91667 0.583333 4.33333 0 6 0C7.1 0 8.10833 0.275 9.025 0.825C9.94167 1.375 10.6667 2.1 11.2 3H18V5H9.85C9.71667 4.35 9.31667 3.68733 8.65 3.012C7.98333 2.33667 7.1 1.99933 6 2C4.9 2 3.95833 2.39167 3.175 3.175C2.39167 3.95833 2 4.9 2 6C2 7.1 2.39167 8.04167 3.175 8.825C3.95833 9.60833 4.9 10 6 10C7.1 10 7.98333 9.66267 8.65 8.988C9.31667 8.31333 9.71667 7.65067 9.85 7H16V10H18V12H14ZM6 8C6.55 8 7.021 7.804 7.413 7.412C7.805 7.02 8.00067 6.54933 8 6C8 5.45 7.804 4.979 7.412 4.587C7.02 4.195 6.54933 3.99933 6 4C5.45 4 4.979 4.196 4.587 4.588C4.195 4.98 3.99933 5.45067 4 6C4 6.55 4.196 7.021 4.588 7.413C4.98 7.805 5.45067 8.00067 6 8ZM21 12C20.7167 12 20.479 11.904 20.287 11.712C20.095 11.52 19.9993 11.2827 20 11C20 10.7167 20.096 10.479 20.288 10.287C20.48 10.095 20.7173 9.99933 21 10C21.2833 10 21.521 10.096 21.713 10.288C21.905 10.48 22.0007 10.7173 22 11C22 11.2833 21.904 11.521 21.712 11.713C21.52 11.905 21.2827 12.0007 21 12ZM20 8V3H22V8H20Z" fill="#D4D7F1"/>
</svg>
