<svg width="24" height="25" viewBox="0 0 24 25" fill="none" xmlns="http://www.w3.org/2000/svg">
<path fill-rule="evenodd" clip-rule="evenodd" d="M12 0.687775C5.37258 0.687775 0 6.06036 0 12.6878C0 19.3152 5.37258 24.6878 12 24.6878C18.6274 24.6878 24 19.3152 24 12.6878C24 6.06036 18.6274 0.687775 12 0.687775ZM17.7593 10.3386C18.1187 9.91924 18.0701 9.28794 17.6508 8.92852C17.2315 8.5691 16.6002 8.61766 16.2407 9.03698L10.9435 15.2171L7.70711 11.9807C7.31658 11.5901 6.68342 11.5901 6.29289 11.9807C5.90237 12.3712 5.90237 13.0044 6.29289 13.3949L10.2929 17.3949C10.4899 17.5918 10.76 17.6977 11.0384 17.687C11.3167 17.6763 11.578 17.5501 11.7593 17.3386L17.7593 10.3386Z" fill="white"/>
</svg>
