<svg width="21" height="20" viewBox="0 0 21 20" fill="none" xmlns="http://www.w3.org/2000/svg">
<path d="M8.57356 18.4093L6.24509 16.0871C6.30772 16.0627 6.3684 16.0371 6.42725 16.0103C6.98118 15.7587 7.30319 15.4361 7.48747 15.2515C7.49329 15.2457 7.49897 15.24 7.50452 15.2345L10.1274 12.6116L12.7403 15.2245C13.0874 15.5716 13.4471 15.8224 13.8158 16.0012L11.4013 18.4093L11.4007 18.4098C11.0257 18.7843 10.5174 18.9947 9.98741 18.9947C9.45741 18.9947 8.94908 18.7843 8.57408 18.4098L8.57356 18.4093ZM6.26606 3.91662L8.60356 1.58542L8.60408 1.58491C8.97908 1.21037 9.48741 1 10.0174 1C10.5474 1 11.0557 1.21037 11.4307 1.58491L11.4313 1.58542L13.835 3.98266C13.448 4.16537 13.0704 4.42691 12.7135 4.7971L10.1274 7.38315L7.50452 4.76025C7.4969 4.75263 7.48893 4.74463 7.4806 4.73626C7.31241 4.56729 6.99801 4.25144 6.45905 3.99993C6.3969 3.97092 6.33261 3.94312 6.26606 3.91662Z" stroke="#D4D7F1" stroke-width="2"/>
<path d="M18.3987 8.55293L18.4016 8.55582C18.7839 8.93666 18.9998 9.45332 19.0024 9.99292C19.0049 10.5317 18.7943 11.0497 18.4167 11.4339C18.4161 11.4344 18.4156 11.435 18.415 11.4356L16.4618 13.3974H15.6174C15.3351 13.3974 15.0687 13.2845 14.8745 13.0903L11.8645 10.0803C11.8326 10.0484 11.8 10.0176 11.7669 9.98788C11.7966 9.96095 11.8258 9.93316 11.8545 9.90449L14.8545 6.90449L14.8638 6.89519L14.8728 6.88564C15.0434 6.7058 15.316 6.58738 15.5974 6.58738H16.4418L18.3987 8.55293ZM8.49883 9.99601C8.46877 10.0232 8.43923 10.0513 8.41025 10.0803L5.39555 13.095C5.18428 13.2989 4.91326 13.4074 4.64736 13.4074H3.58285L1.58601 11.4018L1.58491 11.4007C1.21037 11.0257 1 10.5174 1 9.98738C1 9.45738 1.21037 8.94905 1.58491 8.57405L1.58601 8.57295L3.58285 6.56738H4.63736C4.91939 6.56738 5.18552 6.68004 5.37971 6.87395C5.37989 6.87413 5.38007 6.87431 5.38025 6.87449L8.39909 9.90332L8.40611 9.91037L8.41328 9.91728C8.44125 9.94424 8.46977 9.97049 8.49883 9.99601Z" stroke="#D4D7F1" stroke-width="2"/>
</svg>
