<svg width="18" height="20" viewBox="0 0 18 20"  xmlns="http://www.w3.org/2000/svg">
<path d="M12.2513 11.2857C12.513 11.4279 16.4286 12.428 16.4286 14.8161C16.4286 16.3862 15.6766 17.8135 14.1722 18.2626C12.8724 18.6507 11.0378 19 8.71428 19C6.39071 19 4.55613 18.6508 3.2564 18.2627C1.75205 17.8135 1 16.3861 1 14.8161C1 12.4232 4.91822 11.4262 5.17725 11.2857M8.71429 13.8571C11.6084 13.8571 13.8571 9.42771 13.8571 4.89222C13.8571 2.77667 11.5928 1 8.71429 1C5.83573 1 3.57143 2.77667 3.57143 4.89222C3.57143 9.42772 5.82021 13.8571 8.71429 13.8571Z" stroke="#D4D7F1" stroke-width="2"/>
</svg>
