<svg width="24" height="25" viewBox="0 0 24 25" fill="none" xmlns="http://www.w3.org/2000/svg">
<path fill-rule="evenodd" clip-rule="evenodd" d="M12 24.5C18.6274 24.5 24 19.1274 24 12.5C24 5.87258 18.6274 0.5 12 0.5C5.37258 0.5 0 5.87258 0 12.5C0 19.1274 5.37258 24.5 12 24.5ZM19.2001 16.1052C19.7043 15.6094 19.9564 15.017 19.9564 14.3278C19.9564 13.7732 19.8178 13.3278 19.5404 12.9916C19.2631 12.6471 18.9186 12.3908 18.5068 12.2227C18.1034 12.0462 17.6076 11.8907 17.0193 11.7563V9.6133C17.6748 9.68893 18.3177 9.90743 18.948 10.2688L19.5783 8.71829C18.906 8.2897 18.053 8.03338 17.0193 7.94934V6.57532H15.7587V7.97455C14.8007 8.0838 14.0654 8.39054 13.5527 8.89477C13.0485 9.3906 12.7964 9.98727 12.7964 10.6848C12.7964 11.2478 12.935 11.7016 13.2124 12.0462C13.4897 12.3824 13.8343 12.6387 14.246 12.8152C14.6578 12.9916 15.1621 13.1513 15.7587 13.2942V15.3993C15.3049 15.3573 14.8637 15.2565 14.4351 15.0968C14.0065 14.9371 13.6326 14.7396 13.3132 14.5043L12.6199 16.0422C12.9645 16.3111 13.4183 16.538 13.9813 16.7229C14.5444 16.9078 15.1368 17.0171 15.7587 17.0507V18.4247H17.0193V17.0129C17.9689 16.8952 18.6959 16.5927 19.2001 16.1052ZM15.0654 11.1008C14.9057 10.9663 14.8259 10.794 14.8259 10.5839C14.8259 10.3654 14.9015 10.1764 15.0528 10.0167C15.2041 9.8486 15.4394 9.72675 15.7587 9.65111V11.4411C15.4562 11.3487 15.2251 11.2352 15.0654 11.1008ZM17.7 15.0212C17.5487 15.1724 17.3218 15.2817 17.0193 15.3489V13.6093C17.3134 13.7102 17.5361 13.8278 17.6874 13.9623C17.8471 14.0967 17.9269 14.269 17.9269 14.4791C17.9269 14.6892 17.8513 14.8699 17.7 15.0212ZM7.96396 14.4539L9.66573 16.912H11.8591L9.88003 14.0757C10.4599 13.8236 10.9053 13.4622 11.2162 12.9916C11.5356 12.5126 11.6953 11.9454 11.6953 11.2899C11.6953 10.6344 11.5398 10.0671 11.2288 9.58809C10.9179 9.10907 10.4725 8.7393 9.89264 8.47878C9.32118 8.21826 8.64467 8.088 7.86311 8.088H4.04358V16.912H6.08571V14.4539H7.86311H7.96396ZM9.1489 10.1553C9.46824 10.4159 9.62792 10.794 9.62792 11.2899C9.62792 11.7773 9.46824 12.1555 9.1489 12.4244C8.82955 12.6933 8.36314 12.8278 7.74966 12.8278H6.08571V9.75196H7.74966C8.36314 9.75196 8.82955 9.88642 9.1489 10.1553Z" fill="white"/>
</svg>
