<svg width="21" height="16" viewBox="0 0 21 16" fill="none" xmlns="http://www.w3.org/2000/svg">
<path d="M1.75 6H19.75M5.75 11H6.75M10.75 11H11.75M4.75 15H16.75C17.5456 15 18.3087 14.6839 18.8713 14.1213C19.4339 13.5587 19.75 12.7956 19.75 12V4C19.75 3.20435 19.4339 2.44129 18.8713 1.87868C18.3087 1.31607 17.5456 1 16.75 1H4.75C3.95435 1 3.19129 1.31607 2.62868 1.87868C2.06607 2.44129 1.75 3.20435 1.75 4V12C1.75 12.7956 2.06607 13.5587 2.62868 14.1213C3.19129 14.6839 3.95435 15 4.75 15Z" stroke="#D4D7F1" stroke-width="2" stroke-linecap="round" stroke-linejoin="round"/>
</svg>
