<svg width="21" height="19" viewBox="0 0 21 19" fill="none" xmlns="http://www.w3.org/2000/svg">
<path d="M20.6975 6.38979L19.6475 2.01979C19.4275 1.11979 18.6475 0.499786 17.7375 0.499786H3.84752C2.94752 0.499786 2.15752 1.12979 1.94752 2.01979L0.897522 6.38979C0.657522 7.40979 0.877523 8.44979 1.51752 9.26979C1.59752 9.37979 1.70752 9.45979 1.79752 9.55979V16.4998C1.79752 17.5998 2.69752 18.4998 3.79752 18.4998H17.7975C18.8975 18.4998 19.7975 17.5998 19.7975 16.4998V9.55979C19.8875 9.46979 19.9975 9.37979 20.0775 9.27979C20.7175 8.45979 20.9475 7.40979 20.6975 6.38979ZM17.7075 2.48979L18.7575 6.85979C18.8575 7.27979 18.7675 7.69979 18.5075 8.02979C18.3675 8.20979 18.0675 8.49979 17.5675 8.49979C16.9575 8.49979 16.4275 8.00979 16.3575 7.35979L15.7775 2.49979L17.7075 2.48979ZM11.7975 2.49979H13.7575L14.2975 7.01979C14.3475 7.40979 14.2275 7.79979 13.9675 8.08979C13.7475 8.34979 13.4275 8.49979 13.0175 8.49979C12.3475 8.49979 11.7975 7.90979 11.7975 7.18979V2.49979ZM7.28752 7.01979L7.83752 2.49979H9.79752V7.18979C9.79752 7.90979 9.24752 8.49979 8.50752 8.49979C8.16752 8.49979 7.85752 8.34979 7.61752 8.08979C7.36752 7.79979 7.24752 7.40979 7.28752 7.01979ZM2.83752 6.85979L3.84752 2.49979H5.81752L5.23752 7.35979C5.15752 8.00979 4.63752 8.49979 4.02752 8.49979C3.53752 8.49979 3.22752 8.20979 3.09752 8.02979C2.82752 7.70979 2.73752 7.27979 2.83752 6.85979ZM3.79752 16.4998V10.4698C3.87752 10.4798 3.94752 10.4998 4.02752 10.4998C4.89752 10.4998 5.68752 10.1398 6.26752 9.54979C6.86752 10.1498 7.66752 10.4998 8.57752 10.4998C9.44752 10.4998 10.2275 10.1398 10.8075 9.56979C11.3975 10.1398 12.1975 10.4998 13.0975 10.4998C13.9375 10.4998 14.7375 10.1498 15.3375 9.54979C15.9175 10.1398 16.7075 10.4998 17.5775 10.4998C17.6575 10.4998 17.7275 10.4798 17.8075 10.4698V16.4998H3.79752Z" fill="#01B3A3"/>
</svg>
