<svg width="52" height="49" viewBox="0 0 52 49" fill="none" xmlns="http://www.w3.org/2000/svg">
<rect y="0.5" width="52.0005" height="48" rx="8" fill="#ECFBF9"/>
<mask id="path-2-outside-1_211_1391" maskUnits="userSpaceOnUse" x="16" y="14.5" width="21" height="20" fill="black">
<rect fill="white" x="16" y="14.5" width="21" height="20"/>
<path d="M33.82 24.9351L26.4356 32.3195C26.3785 32.3767 26.3106 32.4221 26.2359 32.4531C26.1612 32.4841 26.0811 32.5 26.0002 32.5C25.9194 32.5 25.8393 32.4841 25.7646 32.4531C25.6899 32.4221 25.622 32.3767 25.5649 32.3195L18.1805 24.9351C18.0943 24.8491 18.0356 24.7394 18.0119 24.6199C17.9881 24.5005 18.0003 24.3767 18.0469 24.2642C18.0935 24.1517 18.1724 24.0556 18.2737 23.9879C18.375 23.9203 18.4941 23.8843 18.6159 23.8844H21.6927V17.7307C21.6927 17.4043 21.8223 17.0913 22.0532 16.8605C22.284 16.6297 22.597 16.5 22.9234 16.5H29.0771C29.4035 16.5 29.7165 16.6297 29.9473 16.8605C30.1781 17.0913 30.3078 17.4043 30.3078 17.7307V23.8844H33.3846C33.5064 23.8843 33.6255 23.9203 33.7268 23.9879C33.8281 24.0556 33.907 24.1517 33.9536 24.2642C34.0002 24.3767 34.0124 24.5005 33.9886 24.6199C33.9649 24.7394 33.9062 24.8491 33.82 24.9351Z"/>
</mask>
<path d="M33.82 24.9351L32.4066 23.5201L32.4058 23.5209L33.82 24.9351ZM26.4356 32.3195L25.0214 30.9053L25.0206 30.9061L26.4356 32.3195ZM25.5649 32.3195L26.9799 30.9061L26.9791 30.9053L25.5649 32.3195ZM18.1805 24.9351L19.5947 23.5209L19.5939 23.5201L18.1805 24.9351ZM18.6159 23.8844L18.6143 25.8844H18.6159V23.8844ZM21.6927 23.8844V25.8844H23.6927V23.8844H21.6927ZM22.9234 16.5V14.5V16.5ZM29.0771 16.5V14.5V16.5ZM30.3078 23.8844H28.3078V25.8844H30.3078V23.8844ZM33.3846 23.8844V25.8844L33.3862 25.8844L33.3846 23.8844ZM33.9536 24.2642L32.1059 25.0298L33.9536 24.2642ZM32.4058 23.5209L25.0214 30.9053L27.8498 33.7337L35.2342 26.3493L32.4058 23.5209ZM25.0206 30.9061C25.1492 30.7774 25.3019 30.6752 25.47 30.6055L27.0018 34.3006C27.3193 34.169 27.6077 33.9761 27.8506 33.733L25.0206 30.9061ZM25.47 30.6055C25.6381 30.5359 25.8183 30.5 26.0002 30.5V34.5C26.3439 34.5 26.6843 34.4323 27.0018 34.3006L25.47 30.6055ZM26.0002 30.5C26.1822 30.5 26.3624 30.5359 26.5305 30.6055L24.9987 34.3006C25.3162 34.4323 25.6566 34.5 26.0002 34.5V30.5ZM26.5305 30.6055C26.6986 30.6752 26.8513 30.7774 26.9799 30.9061L24.1499 33.733C24.3928 33.9761 24.6812 34.169 24.9987 34.3006L26.5305 30.6055ZM26.9791 30.9053L19.5947 23.5209L16.7663 26.3493L24.1507 33.7337L26.9791 30.9053ZM19.5939 23.5201C19.7878 23.7138 19.9198 23.9606 19.9733 24.2293L16.0504 25.0106C16.1515 25.5182 16.4009 25.9844 16.7671 26.3501L19.5939 23.5201ZM19.9733 24.2293C20.0269 24.4981 19.9994 24.7766 19.8945 25.0298L16.1992 23.4986C16.0011 23.9768 15.9493 24.503 16.0504 25.0106L19.9733 24.2293ZM19.8945 25.0298C19.7897 25.2829 19.612 25.4993 19.3841 25.6514L17.1633 22.3245C16.7329 22.6119 16.3973 23.0205 16.1992 23.4986L19.8945 25.0298ZM19.3841 25.6514C19.1562 25.8035 18.8883 25.8846 18.6143 25.8844L18.6174 21.8844C18.0999 21.884 17.5938 22.0372 17.1633 22.3245L19.3841 25.6514ZM18.6159 25.8844H21.6927V21.8844H18.6159V25.8844ZM23.6927 23.8844V17.7307H19.6927V23.8844H23.6927ZM23.6927 17.7307C23.6927 17.9348 23.6116 18.1304 23.4674 18.2747L20.6389 15.4463C20.0331 16.0521 19.6927 16.8739 19.6927 17.7307H23.6927ZM23.4674 18.2747C23.3231 18.419 23.1274 18.5 22.9234 18.5V14.5C22.0666 14.5 21.2448 14.8404 20.6389 15.4463L23.4674 18.2747ZM22.9234 18.5H29.0771V14.5H22.9234V18.5ZM29.0771 18.5C28.8731 18.5 28.6774 18.419 28.5331 18.2747L31.3615 15.4463C30.7557 14.8404 29.9339 14.5 29.0771 14.5V18.5ZM28.5331 18.2747C28.3889 18.1304 28.3078 17.9348 28.3078 17.7307H32.3078C32.3078 16.8739 31.9674 16.0521 31.3615 15.4463L28.5331 18.2747ZM28.3078 17.7307V23.8844H32.3078V17.7307H28.3078ZM30.3078 25.8844H33.3846V21.8844H30.3078V25.8844ZM33.3862 25.8844C33.1122 25.8846 32.8443 25.8035 32.6164 25.6514L34.8372 22.3245C34.4067 22.0372 33.9006 21.884 33.3831 21.8844L33.3862 25.8844ZM32.6164 25.6514C32.3885 25.4993 32.2108 25.2829 32.1059 25.0298L35.8013 23.4986C35.6032 23.0205 35.2676 22.6119 34.8372 22.3245L32.6164 25.6514ZM32.1059 25.0298C32.0011 24.7766 31.9736 24.4981 32.0272 24.2293L35.9501 25.0106C36.0512 24.5029 35.9994 23.9768 35.8013 23.4986L32.1059 25.0298ZM32.0272 24.2293C32.0807 23.9606 32.2127 23.7138 32.4066 23.5201L35.2334 26.3501C35.5996 25.9844 35.849 25.5182 35.9501 25.0106L32.0272 24.2293Z" fill="#01B3A3" mask="url(#path-2-outside-1_211_1391)"/>
</svg>
